{"title":"The Flash 2014 S03E21 720p WEB-DL HEVC 2CH x265","magnet":"magnet:?xt=urn:btih:53513d018972376ca0be539fcde6aaa3cc3514ac&dn=The+Flash+2014+S03E21+720p+WEB-DL+HEVC+2CH+x265&tr=udp%3A%2F%2Ftracker.leechers-paradise.org%3A6969&tr=udp%3A%2F%2Fzer0day.ch%3A1337&tr=udp%3A%2F%2Fopen.demonii.com%3A1337&tr=udp%3A%2F%2Ftracker.coppersurfer.tk%3A6969&tr=udp%3A%2F%2Fexodus.desync.com%3A6969","uploader":"nayhtut","categoryP":"video","categoryS":"hd___tv_shows","size":"343833754","seeders":"6","leechers":"23","description":"Source: The Flash 2014 S03E21 720p WEB-DL H264-FUM (1.31 GiB)\r\n\r\n \r\nComplete name: The.Flash.2014.S03E21.720p.WEB.DL.HEVC.2CH.x265.mkv\r\nFormat                                   : Matroska\r\nFormat version                           : Version 4 / Version 2\r\nFile size                                : 328 MiB\r\nDuration                                 : 42mn 16s\r\nOverall bit rate                         : 1 084 Kbps\r\nWriting application                      : Lavf57.25.100\r\n\r\nVideo\r\n\r\nID                                       : 1\r\nFormat                                   : V_MPEGH/ISO/HEVC\r\nDuration                                 : 42mn 16s\r\nBit rate                                 : 839 Kbps\r\nWidth                                    : 1 280 pixels\r\nHeight                                   : 718 pixels\r\nDisplay aspect ratio                     : 16:9\r\nFrame rate                               : 25.000 fps\r\nBits/(Pixel*Frame)                       : 0.037\r\nStream size                              : 254 MiB (77%)\r\nDefault                                  : Yes\r\nForced                                   : No\r\nDURATION                                 : 00:42:16.371000000\r\n\r\nAudio\r\n\r\nID                                       : 2\r\nFormat                                   : AC-3\r\nFormat/Info                              : Audio Coding 3\r\nMode extension                           : CM (complete main)\r\nFormat settings, Endianness              : Big\r\nCodec ID                                 : A_AC3\r\nDuration                                 : 42mn 16s\r\nBit rate mode                            : Constant\r\nBit rate                                 : 224 Kbps\r\nChannel(s)                               : 2 channels\r\nChannel positions                        : Front: L R\r\nSampling rate                            : 48.0 KHz\r\nBit depth                                : 32 bits\r\nCompression mode                         : Lossy\r\nStream size                              : 67.7 MiB (21%)\r\nWriting library                          : Lavc57.24.102 ac3\r\nDefault                                  : Yes\r\nForced                                   : No\r\nDURATION                                 : 00:42:16.447000000\r\n\r\nText\r\n\r\nID                                       : 3\r\nCodec ID                                 : S_TEXT/ASS\r\nLanguage                                 : English","last_updated":"2017-05-10T10:59:00.455Z","parsed":{"xt":"urn:btih:53513d018972376ca0be539fcde6aaa3cc3514ac","dn":"The Flash 2014 S03E21 720p WEB-DL HEVC 2CH x265","tr":["udp://exodus.desync.com:6969","udp://open.demonii.com:1337","udp://tracker.coppersurfer.tk:6969","udp://tracker.leechers-paradise.org:6969","udp://zer0day.ch:1337"],"infoHash":"53513d018972376ca0be539fcde6aaa3cc3514ac","infoHashBuffer":{"type":"Buffer","data":[83,81,61,1,137,114,55,108,160,190,83,159,205,230,170,163,204,53,20,172]},"name":"The Flash 2014 S03E21 720p WEB-DL HEVC 2CH x265","announce":["udp://exodus.desync.com:6969","udp://open.demonii.com:1337","udp://tracker.coppersurfer.tk:6969","udp://tracker.leechers-paradise.org:6969","udp://zer0day.ch:1337"],"urlList":[]}}